<?xml version="1.0" encoding="UTF-8"?>
<svg id="Layer_2" data-name="Layer 2" xmlns="http://www.w3.org/2000/svg" viewBox="0 0 550.33 89.36">
  <defs>
    <style>
      .cls-1 {
        fill: #294834;
      }
    </style>
  </defs>
  <g id="Layer_1-2" data-name="Layer 1">
    <g>
      <polygon class="cls-1" points="269.1 10.7 265.85 .61 237.88 14.45 239.55 19.65 269.1 10.7"/>
      <path class="cls-1" d="M110.45,78.51c-.77,.06-1.55,.11-2.36,.11-12.04-.06-21.82-9.87-21.82-21.92s9.84-21.93,21.93-21.93,21.93,9.84,21.93,21.93c0,11.33-8.64,20.68-19.68,21.81m-77.95,.12c-12.09,0-21.93-9.84-21.93-21.93,0-8.01,4.33-15.01,10.76-18.83,3.61-1.96,7.42-2.94,11.68-3.07,11.85,.28,21.42,9.98,21.42,21.9s-9.84,21.93-21.93,21.93M254.67,24.06s-.04,0-.07,0c-.02,0-.04,0-.07,0-16.46,0-30.11,12.25-32.33,28.11-4.68-6.86-9.75-14.01-16.31-19.36-.15-.13-.31-.25-.46-.37-.15-.12-.31-.24-.46-.36-6.15-4.8-13.59-8.01-23.21-8.01-8.89,0-15.93,2.75-21.8,6.96V1.25c0-.69-.56-1.25-1.25-1.25h-8.08c-.69,0-1.25,.56-1.25,1.25V41.24c-3.16,3.86-5.99,8-8.7,12.01V28.01c0-.69-.56-1.25-1.25-1.25h-8.07c-.69,0-1.25,.56-1.25,1.25v4.77c-5.79-5.31-13.47-8.58-21.93-8.58-17.14,0-31.19,13.34-32.38,30.19h0c-6.93-10.2-14.48-21.55-26.42-26.97-.03-.01-.05-.02-.08-.03-.36-.16-.72-.33-1.09-.48-4.24-1.79-9.02-2.84-14.51-2.84-9.99,0-17.49,3.57-23.14,7.92V1.25c0-.69-.56-1.25-1.25-1.25H1.25C.56,0,0,.56,0,1.25V87.46H10.57v-6.84c5.79,5.31,13.47,8.58,21.93,8.58,17.6,0,31.95-14.07,32.46-31.55,.46,.67,.91,1.35,1.37,2.03,9.42,13.91,20.09,29.68,41.41,29.68,9.15,0,16.34-2.91,22.31-7.33,.02-.02,.05-.03,.07-.05v5.48h10.57v-15.86c3.15-3.89,5.98-8.05,8.7-12.05v27.91h10.57v-30.76c0-12,9.69-21.76,21.65-21.91,.1,0,.19-.01,.29-.01,12.09,0,21.92,9.84,21.92,21.93v30.76h10.57v-27.77c6.79,10.04,14.25,21.04,25.88,26.39,4.31,2.1,9.15,3.28,14.26,3.28h0s.09,0,.13,0v-.03c.38,0,.75,.03,1.13,.03,9.66,0,18-3.23,25.5-9.88l-7.04-7.93c-5.55,4.92-11.42,7.21-18.46,7.21-3.69,0-6.93-.66-9.87-1.81-7.82-3.39-13.31-11.18-13.31-20.23,0-12.14,9.86-22.01,21.99-22.04,10.3,.03,18.96,7.16,21.33,16.74h-34.72c-.65,1.64-1.02,3.43-1.02,5.3s.37,3.66,1.02,5.3h46.1v-5.3c0-18-14.65-32.65-32.65-32.65"/>
      <path class="cls-1" d="M510.56,59.67c-6.14-9.07-11.71-17.29-19.51-21.68-3.73,5.3-5.93,11.76-5.93,18.74,0,18.01,14.6,32.61,32.61,32.61,5.99,0,11.6-1.62,16.42-4.44-10.34-5.67-17.25-15.87-23.58-25.23"/>
      <path class="cls-1" d="M519.35,53.72c7.17,10.6,13.58,20.06,23.68,23.57,4.56-5.61,7.3-12.76,7.3-20.56,0-18.01-14.6-32.61-32.61-32.61-7.11,0-13.69,2.28-19.04,6.15,8.75,5.87,14.94,15,20.67,23.45"/>
      <path class="cls-1" d="M445.31,59.67c-8.15,12.04-17.24,25.46-33.36,28.86,.93,.51,2,.8,3.13,.8h48.91c5.4,0,9.78-4.38,9.78-9.78V34.94c-13,1.87-20.22,12.55-28.46,24.73"/>
      <path class="cls-1" d="M436.53,53.72c8.2-12.11,17.34-25.62,33.64-28.92-.88-.44-1.86-.69-2.91-.69h-52.17c-3.6,0-6.52,2.92-6.52,6.52v47.74c12.68-2.07,19.83-12.62,27.97-24.65"/>
      <path class="cls-1" d="M329.88,34.65c-1.55,0-3.04,.12-4.48,.34l29.51,51.11c2.51,4.35,8.78,4.35,11.29,0l6.94-12.02c-3.96-4.53-7.37-9.58-10.64-14.4-9.09-13.42-16.93-25.02-32.62-25.02"/>
      <path class="cls-1" d="M371.28,53.72c2.53,3.74,4.96,7.33,7.5,10.58l17.56-30.42c2.51-4.35-.63-9.78-5.65-9.78h-58.64c19.88,1.03,30.15,16.19,39.23,29.62"/>
    </g>
  </g>
</svg>